<?xml version="1.0" standalone="no"?>
<!DOCTYPE svg PUBLIC "-//W3C//DTD SVG 20010904//EN"
 "http://www.w3.org/TR/2001/REC-SVG-20010904/DTD/svg10.dtd">
<svg version="1.0" xmlns="http://www.w3.org/2000/svg"
 width="512.000000pt" height="512.000000pt" viewBox="0 0 512.000000 512.000000"
 preserveAspectRatio="xMidYMid meet">

<g transform="translate(0.000000,512.000000) scale(0.100000,-0.100000)"
fill="#155dfc" stroke="none">
<path d="M2483 4590 c-24 -5 -62 -18 -86 -28 -49 -22 -2380 -1959 -2390 -1987
-13 -32 -7 -72 15 -101 12 -16 66 -82 120 -146 81 -97 104 -118 132 -124 19
-3 44 -3 55 1 12 3 517 420 1123 926 606 505 1105 919 1108 919 4 0 503 -414
1109 -920 607 -505 1112 -922 1123 -926 11 -3 35 -3 54 1 29 5 53 28 149 143
115 137 135 175 120 222 -4 11 -168 156 -366 321 l-359 299 -2 670 -3 670 -28
27 -27 28 -318 3 c-174 2 -331 0 -349 -3 -17 -3 -42 -14 -55 -24 l-23 -19 -5
-337 -5 -338 -408 341 c-441 368 -453 377 -579 386 -35 3 -82 1 -105 -4z"/>
<path d="M1643 3018 l-913 -753 0 -780 c0 -523 4 -793 11 -819 15 -55 84 -120
141 -134 33 -9 225 -12 657 -12 l611 0 0 610 0 610 410 0 410 0 0 -610 0 -610
611 0 c432 0 624 3 657 12 57 14 126 79 141 134 7 26 11 296 11 819 l0 781
-909 749 c-500 412 -913 751 -917 752 -5 2 -420 -336 -921 -749z"/>
</g>
</svg>
